<svg xmlns:mydata="http://www.w3.org/2000/svg" mydata:contrastcolor="ffffff" mydata:template="Contrast" mydata:presentation="2.5" mydata:layouttype="undefined" mydata:specialfontid="undefined" mydata:id1="874" mydata:id2="151" mydata:companyname="EMS" mydata:companytagline="Emergency Management System" version="1.1" xmlns="http://www.w3.org/2000/svg" xmlns:xlink="http://www.w3.org/1999/xlink" viewBox="0 35 550 400"><g fill="none" fill-rule="none" stroke="none" stroke-width="1" stroke-linecap="butt" stroke-linejoin="miter" stroke-miterlimit="10" stroke-dasharray="" stroke-dashoffset="0" font-family="none" font-weight="none" font-size="none" text-anchor="none" style="mix-blend-mode: normal"><g data-paper-data="{&quot;isGlobalGroup&quot;:true,&quot;bounds&quot;:{&quot;x&quot;:170.78603407273076,&quot;y&quot;:114.99999999999999,&quot;width&quot;:208.4279318545385,&quot;height&quot;:240}}"><g data-paper-data="{&quot;isSecondaryText&quot;:true}" fill="#26d07c" fill-rule="nonzero"><path d="M191.85548,354.95547v-6.23352h3.84697v0.96174h-2.88523v1.55838h2.62698v0.96174h-2.62698v1.78991h2.91195v0.96174z" data-paper-data="{&quot;glyphName&quot;:&quot;E&quot;,&quot;glyphIndex&quot;:0,&quot;firstGlyphOfWord&quot;:true,&quot;word&quot;:1}"></path><path d="M202.5712,354.95547v-4.2388l-1.83444,2.99209l-1.86115,-2.93866v4.18537h-0.93503v-6.23352h0.73912l2.05706,3.27705l2.05706,-3.27705h0.73021v6.23352z" data-paper-data="{&quot;glyphName&quot;:&quot;M&quot;,&quot;glyphIndex&quot;:1,&quot;word&quot;:1}"></path><path d="M205.73545,354.95547v-6.23352h3.84697v0.96174h-2.88523v1.55838h2.62698v0.96174h-2.62698v1.78991h2.91195v0.96174z" data-paper-data="{&quot;glyphName&quot;:&quot;E&quot;,&quot;glyphIndex&quot;:2,&quot;word&quot;:1}"></path><path d="M213.89543,352.43535h-1.11313v2.52012h-0.96174v-6.23352h2.36874c0.25528,0 0.49423,0.04898 0.71686,0.14693c0.22263,0.09796 0.41854,0.23153 0.58773,0.40073c0.1692,0.1692 0.30277,0.36659 0.40073,0.59218c0.09796,0.22559 0.14693,0.46603 0.14693,0.72131c0,0.37401 -0.10241,0.7124 -0.30722,1.01517c-0.20482,0.30277 -0.46455,0.52837 -0.77919,0.67678l1.407,2.68042h-1.08641zM212.7823,351.47361h1.407c0.12467,0 0.24044,-0.02226 0.3473,-0.06679c0.10686,-0.04453 0.20036,-0.10686 0.28051,-0.18701c0.08015,-0.08015 0.14396,-0.17513 0.19146,-0.28496c0.04749,-0.10983 0.07124,-0.22708 0.07124,-0.35175c0,-0.24934 -0.08608,-0.46009 -0.25825,-0.63226c-0.17216,-0.17216 -0.38292,-0.26121 -0.63226,-0.26715h-1.407z" data-paper-data="{&quot;glyphName&quot;:&quot;R&quot;,&quot;glyphIndex&quot;:3,&quot;word&quot;:1}"></path><path d="M223.73846,353.96702c-0.26715,0.30871 -0.57586,0.55656 -0.92612,0.74357c-0.35026,0.18701 -0.77771,0.28051 -1.28232,0.28051c-0.47494,0 -0.89644,-0.09053 -1.26451,-0.2716c-0.36807,-0.18107 -0.67678,-0.42002 -0.92612,-0.71686c-0.24934,-0.29683 -0.43931,-0.63671 -0.56992,-1.01963c-0.13061,-0.38292 -0.19591,-0.77622 -0.19591,-1.17992c0,-0.40963 0.05491,-0.80442 0.16474,-1.18437c0.10983,-0.37995 0.27902,-0.71686 0.50759,-1.01072c0.22856,-0.29387 0.51798,-0.52837 0.86824,-0.7035c0.35026,-0.17513 0.76286,-0.2627 1.2378,-0.2627c0.50462,0 0.94245,0.10092 1.31349,0.30277c0.37104,0.20185 0.70498,0.4779 1.00182,0.82817l-0.7035,0.62335c-0.25528,-0.31464 -0.51352,-0.5254 -0.77474,-0.63226c-0.26121,-0.10686 -0.5343,-0.16029 -0.81926,-0.16029c-0.31464,0 -0.58773,0.06085 -0.81926,0.18255c-0.23153,0.1217 -0.42299,0.28496 -0.57437,0.48978c-0.15139,0.20482 -0.2627,0.4408 -0.33394,0.70795c-0.07124,0.26715 -0.10686,0.54321 -0.10686,0.82817c0,0.28496 0.04601,0.56102 0.13803,0.82817c0.09202,0.26715 0.22411,0.50462 0.39627,0.7124c0.17216,0.20778 0.38292,0.37401 0.63226,0.49868c0.24934,0.12467 0.53133,0.18701 0.84598,0.18701c0.2434,0 0.47048,-0.03117 0.68124,-0.0935c0.21075,-0.06234 0.40815,-0.17662 0.59218,-0.34284v-1.39809h-1.67415v-0.96174h2.63589v2.61808z" data-paper-data="{&quot;glyphName&quot;:&quot;G&quot;,&quot;glyphIndex&quot;:4,&quot;word&quot;:1}"></path><path d="M225.99441,354.95547v-6.23352h3.84697v0.96174h-2.88523v1.55838h2.62698v0.96174h-2.62698v1.78991h2.91195v0.96174z" data-paper-data="{&quot;glyphName&quot;:&quot;E&quot;,&quot;glyphIndex&quot;:5,&quot;word&quot;:1}"></path><path d="M236.37174,354.95547l-3.34829,-4.44361v4.44361h-0.94393v-6.23352h0.75693l3.37501,4.43471v-4.43471h0.94393v6.23352z" data-paper-data="{&quot;glyphName&quot;:&quot;N&quot;,&quot;glyphIndex&quot;:6,&quot;word&quot;:1}"></path><path d="M239.3668,351.80309c0,-0.40963 0.05491,-0.80442 0.16474,-1.18437c0.10983,-0.37995 0.27902,-0.71686 0.50759,-1.01072c0.22856,-0.29387 0.51798,-0.52837 0.86824,-0.7035c0.35026,-0.17513 0.76286,-0.2627 1.2378,-0.2627c0.50462,0 0.94245,0.10092 1.31349,0.30277c0.37104,0.20185 0.70498,0.4779 1.00182,0.82817l-0.7035,0.62335c-0.25528,-0.31464 -0.51204,-0.5254 -0.77029,-0.63226c-0.25825,-0.10686 -0.53282,-0.16029 -0.82372,-0.16029c-0.31464,0 -0.58773,0.06085 -0.81926,0.18255c-0.23153,0.1217 -0.42299,0.28496 -0.57437,0.48978c-0.15139,0.20482 -0.2627,0.4408 -0.33394,0.70795c-0.07124,0.26715 -0.10686,0.54321 -0.10686,0.82817c0,0.28496 0.03562,0.56102 0.10686,0.82817c0.07124,0.26715 0.18255,0.50462 0.33394,0.7124c0.15139,0.20778 0.34284,0.37401 0.57437,0.49868c0.23153,0.12467 0.50462,0.18701 0.81926,0.18701c0.2909,0 0.56695,-0.05788 0.82817,-0.17365c0.26121,-0.11577 0.51649,-0.33097 0.76583,-0.64561l0.7035,0.62335c-0.2909,0.35026 -0.62335,0.62929 -0.99736,0.83707c-0.37401,0.20778 -0.81333,0.31168 -1.31794,0.31168c-0.47494,0 -0.88754,-0.09053 -1.2378,-0.2716c-0.35026,-0.18107 -0.63968,-0.42002 -0.86824,-0.71686c-0.22856,-0.29683 -0.39776,-0.63671 -0.50759,-1.01963c-0.10983,-0.38292 -0.16474,-0.77622 -0.16474,-1.17992z" data-paper-data="{&quot;glyphName&quot;:&quot;C&quot;,&quot;glyphIndex&quot;:7,&quot;word&quot;:1}"></path><path d="M249.39683,350.96602l1.5851,-2.24407h1.14875l-2.24407,3.31267l-0.00891,2.92085h-0.96174v-2.92085l-2.24407,-3.31267h1.14875z" data-paper-data="{&quot;glyphName&quot;:&quot;Y&quot;,&quot;glyphIndex&quot;:8,&quot;lastGlyphOfWord&quot;:true,&quot;word&quot;:1}"></path><path d="M263.072,354.95547v-4.2388l-1.83444,2.99209l-1.86115,-2.93866v4.18537h-0.93503v-6.23352h0.73912l2.05706,3.27705l2.05706,-3.27705h0.73021v6.23352z" data-paper-data="{&quot;glyphName&quot;:&quot;M&quot;,&quot;glyphIndex&quot;:9,&quot;firstGlyphOfWord&quot;:true,&quot;word&quot;:2}"></path><path d="M269.89622,353.16556h-1.95911l-0.63226,1.78991h-1.0686l2.22626,-6.23352h0.90831l2.22626,6.23352h-1.0686zM268.2755,352.21272h1.27342c-0.05937,-0.17216 -0.11428,-0.32652 -0.16474,-0.46306c-0.05046,-0.13654 -0.09944,-0.2716 -0.14693,-0.40518c-0.04749,-0.13358 -0.09647,-0.2716 -0.14693,-0.41408c-0.05046,-0.14248 -0.10834,-0.30871 -0.17365,-0.49868z" data-paper-data="{&quot;glyphName&quot;:&quot;A&quot;,&quot;glyphIndex&quot;:10,&quot;word&quot;:2}"></path><path d="M278.10072,354.95547l-3.34829,-4.44361v4.44361h-0.94393v-6.23352h0.75693l3.37501,4.43471v-4.43471h0.94393v6.23352z" data-paper-data="{&quot;glyphName&quot;:&quot;N&quot;,&quot;glyphIndex&quot;:11,&quot;word&quot;:2}"></path><path d="M284.75575,353.16556h-1.95911l-0.63226,1.78991h-1.0686l2.22626,-6.23352h0.90831l2.22626,6.23352h-1.0686zM283.13504,352.21272h1.27342c-0.05937,-0.17216 -0.11428,-0.32652 -0.16474,-0.46306c-0.05046,-0.13654 -0.09944,-0.2716 -0.14693,-0.40518c-0.04749,-0.13358 -0.09647,-0.2716 -0.14693,-0.41408c-0.05046,-0.14248 -0.10834,-0.30871 -0.17365,-0.49868z" data-paper-data="{&quot;glyphName&quot;:&quot;A&quot;,&quot;glyphIndex&quot;:12,&quot;word&quot;:2}"></path><path d="M293.83295,353.96702c-0.26715,0.30871 -0.57586,0.55656 -0.92612,0.74357c-0.35026,0.18701 -0.77771,0.28051 -1.28232,0.28051c-0.47494,0 -0.89644,-0.09053 -1.26451,-0.2716c-0.36807,-0.18107 -0.67678,-0.42002 -0.92612,-0.71686c-0.24934,-0.29683 -0.43931,-0.63671 -0.56992,-1.01963c-0.13061,-0.38292 -0.19591,-0.77622 -0.19591,-1.17992c0,-0.40963 0.05491,-0.80442 0.16474,-1.18437c0.10983,-0.37995 0.27902,-0.71686 0.50759,-1.01072c0.22856,-0.29387 0.51798,-0.52837 0.86824,-0.7035c0.35026,-0.17513 0.76286,-0.2627 1.2378,-0.2627c0.50462,0 0.94245,0.10092 1.31349,0.30277c0.37104,0.20185 0.70498,0.4779 1.00182,0.82817l-0.7035,0.62335c-0.25528,-0.31464 -0.51352,-0.5254 -0.77474,-0.63226c-0.26121,-0.10686 -0.5343,-0.16029 -0.81926,-0.16029c-0.31464,0 -0.58773,0.06085 -0.81926,0.18255c-0.23153,0.1217 -0.42299,0.28496 -0.57437,0.48978c-0.15139,0.20482 -0.2627,0.4408 -0.33394,0.70795c-0.07124,0.26715 -0.10686,0.54321 -0.10686,0.82817c0,0.28496 0.04601,0.56102 0.13803,0.82817c0.09202,0.26715 0.22411,0.50462 0.39627,0.7124c0.17216,0.20778 0.38292,0.37401 0.63226,0.49868c0.24934,0.12467 0.53133,0.18701 0.84598,0.18701c0.2434,0 0.47048,-0.03117 0.68124,-0.0935c0.21075,-0.06234 0.40815,-0.17662 0.59218,-0.34284v-1.39809h-1.67415v-0.96174h2.63589v2.61808z" data-paper-data="{&quot;glyphName&quot;:&quot;G&quot;,&quot;glyphIndex&quot;:13,&quot;word&quot;:2}"></path><path d="M296.08889,354.95547v-6.23352h3.84697v0.96174h-2.88523v1.55838h2.62698v0.96174h-2.62698v1.78991h2.91195v0.96174z" data-paper-data="{&quot;glyphName&quot;:&quot;E&quot;,&quot;glyphIndex&quot;:14,&quot;word&quot;:2}"></path><path d="M306.80462,354.95547v-4.2388l-1.83444,2.99209l-1.86115,-2.93866v4.18537h-0.93503v-6.23352h0.73912l2.05706,3.27705l2.05706,-3.27705h0.73021v6.23352z" data-paper-data="{&quot;glyphName&quot;:&quot;M&quot;,&quot;glyphIndex&quot;:15,&quot;word&quot;:2}"></path><path d="M309.96887,354.95547v-6.23352h3.84697v0.96174h-2.88523v1.55838h2.62698v0.96174h-2.62698v1.78991h2.91195v0.96174z" data-paper-data="{&quot;glyphName&quot;:&quot;E&quot;,&quot;glyphIndex&quot;:16,&quot;word&quot;:2}"></path><path d="M320.3462,354.95547l-3.34829,-4.44361v4.44361h-0.94393v-6.23352h0.75693l3.37501,4.43471v-4.43471h0.94393v6.23352z" data-paper-data="{&quot;glyphName&quot;:&quot;N&quot;,&quot;glyphIndex&quot;:17,&quot;word&quot;:2}"></path><path d="M325.78124,349.6837v5.27178h-0.96174v-5.27178h-1.47824v-0.96174h3.8915v0.96174z" data-paper-data="{&quot;glyphName&quot;:&quot;T&quot;,&quot;glyphIndex&quot;:18,&quot;lastGlyphOfWord&quot;:true,&quot;word&quot;:2}"></path><path d="M337.23905,350.2269c-0.16623,-0.20185 -0.34878,-0.3473 -0.54766,-0.43635c-0.19888,-0.08905 -0.43189,-0.13358 -0.69905,-0.13358c-0.34433,0 -0.61296,0.06679 -0.80591,0.20036c-0.19294,0.13358 -0.28941,0.29535 -0.28941,0.48532c0,0.11873 0.04304,0.22411 0.12912,0.31613c0.08608,0.09202 0.19739,0.17513 0.33394,0.24934c0.13654,0.07421 0.28496,0.14396 0.44525,0.20927c0.16029,0.0653 0.31761,0.12467 0.47197,0.1781h-0.00891c0.17216,0.05937 0.36659,0.13654 0.58328,0.23153c0.21669,0.09499 0.4215,0.21669 0.61445,0.36511c0.19294,0.14842 0.3562,0.32652 0.48978,0.5343c0.13358,0.20778 0.20036,0.45416 0.20036,0.73912c0,0.29683 -0.0564,0.55953 -0.1692,0.7881c-0.1128,0.22856 -0.27012,0.42002 -0.47197,0.57437c-0.20185,0.15435 -0.43783,0.2716 -0.70795,0.35175c-0.27012,0.08015 -0.5625,0.12022 -0.87715,0.12022c-0.44525,0 -0.86082,-0.09499 -1.2467,-0.28496c-0.38588,-0.18997 -0.76583,-0.49275 -1.13984,-0.90831l0.78364,-0.64116c0.21372,0.29683 0.45564,0.51352 0.72576,0.65007c0.27012,0.13654 0.56547,0.20482 0.88605,0.20482c0.18404,0 0.35175,-0.01781 0.50313,-0.05343c0.15139,-0.03562 0.28199,-0.08608 0.39182,-0.15139c0.10983,-0.0653 0.19591,-0.14248 0.25825,-0.23153c0.06234,-0.08905 0.0935,-0.18701 0.0935,-0.29387c0,-0.14842 -0.04453,-0.27902 -0.13358,-0.39182c-0.08905,-0.1128 -0.20185,-0.21224 -0.33839,-0.29832c-0.13654,-0.08608 -0.2909,-0.16029 -0.46306,-0.22263c-0.17216,-0.06234 -0.33839,-0.12022 -0.49868,-0.17365l-0.21372,-0.08015c-0.20185,-0.07124 -0.39924,-0.14693 -0.59218,-0.22708c-0.19294,-0.08015 -0.36659,-0.18404 -0.52094,-0.31168c-0.15435,-0.12764 -0.27902,-0.28645 -0.37401,-0.47642c-0.09499,-0.18997 -0.14248,-0.42447 -0.14248,-0.7035c0,-0.21966 0.03859,-0.43338 0.11577,-0.64116c0.07718,-0.20778 0.19888,-0.39034 0.36511,-0.54766c0.16623,-0.15732 0.37995,-0.28348 0.64116,-0.37846c0.26121,-0.09499 0.57586,-0.14248 0.94393,-0.14248c0.21372,0 0.41854,0.01781 0.61445,0.05343c0.19591,0.03562 0.38588,0.09647 0.56992,0.18255c0.18404,0.08608 0.36362,0.19888 0.53875,0.33839c0.17513,0.13951 0.34878,0.31316 0.52094,0.52094l-0.82817,0.65897z" data-paper-data="{&quot;glyphName&quot;:&quot;S&quot;,&quot;glyphIndex&quot;:19,&quot;firstGlyphOfWord&quot;:true,&quot;word&quot;:3}"></path><path d="M343.15496,350.96602l1.5851,-2.24407h1.14875l-2.24407,3.31267l-0.00891,2.92085h-0.96174v-2.92085l-2.24407,-3.31267h1.14875z" data-paper-data="{&quot;glyphName&quot;:&quot;Y&quot;,&quot;glyphIndex&quot;:20,&quot;word&quot;:3}"></path><path d="M351.79581,350.2269c-0.16623,-0.20185 -0.34878,-0.3473 -0.54766,-0.43635c-0.19888,-0.08905 -0.43189,-0.13358 -0.69905,-0.13358c-0.34433,0 -0.61296,0.06679 -0.80591,0.20036c-0.19294,0.13358 -0.28941,0.29535 -0.28941,0.48532c0,0.11873 0.04304,0.22411 0.12912,0.31613c0.08608,0.09202 0.19739,0.17513 0.33394,0.24934c0.13654,0.07421 0.28496,0.14396 0.44525,0.20927c0.16029,0.0653 0.31761,0.12467 0.47197,0.1781h-0.00891c0.17216,0.05937 0.36659,0.13654 0.58328,0.23153c0.21669,0.09499 0.4215,0.21669 0.61445,0.36511c0.19294,0.14842 0.3562,0.32652 0.48978,0.5343c0.13358,0.20778 0.20036,0.45416 0.20036,0.73912c0,0.29683 -0.0564,0.55953 -0.1692,0.7881c-0.1128,0.22856 -0.27012,0.42002 -0.47197,0.57437c-0.20185,0.15435 -0.43783,0.2716 -0.70795,0.35175c-0.27012,0.08015 -0.5625,0.12022 -0.87715,0.12022c-0.44525,0 -0.86082,-0.09499 -1.2467,-0.28496c-0.38588,-0.18997 -0.76583,-0.49275 -1.13984,-0.90831l0.78364,-0.64116c0.21372,0.29683 0.45564,0.51352 0.72576,0.65007c0.27012,0.13654 0.56547,0.20482 0.88605,0.20482c0.18404,0 0.35175,-0.01781 0.50313,-0.05343c0.15139,-0.03562 0.28199,-0.08608 0.39182,-0.15139c0.10983,-0.0653 0.19591,-0.14248 0.25825,-0.23153c0.06234,-0.08905 0.0935,-0.18701 0.0935,-0.29387c0,-0.14842 -0.04453,-0.27902 -0.13358,-0.39182c-0.08905,-0.1128 -0.20185,-0.21224 -0.33839,-0.29832c-0.13654,-0.08608 -0.2909,-0.16029 -0.46306,-0.22263c-0.17216,-0.06234 -0.33839,-0.12022 -0.49868,-0.17365l-0.21372,-0.08015c-0.20185,-0.07124 -0.39924,-0.14693 -0.59218,-0.22708c-0.19294,-0.08015 -0.36659,-0.18404 -0.52094,-0.31168c-0.15435,-0.12764 -0.27902,-0.28645 -0.37401,-0.47642c-0.09499,-0.18997 -0.14248,-0.42447 -0.14248,-0.7035c0,-0.21966 0.03859,-0.43338 0.11577,-0.64116c0.07718,-0.20778 0.19888,-0.39034 0.36511,-0.54766c0.16623,-0.15732 0.37995,-0.28348 0.64116,-0.37846c0.26121,-0.09499 0.57586,-0.14248 0.94393,-0.14248c0.21372,0 0.41854,0.01781 0.61445,0.05343c0.19591,0.03562 0.38588,0.09647 0.56992,0.18255c0.18404,0.08608 0.36362,0.19888 0.53875,0.33839c0.17513,0.13951 0.34878,0.31316 0.52094,0.52094l-0.82817,0.65897z" data-paper-data="{&quot;glyphName&quot;:&quot;S&quot;,&quot;glyphIndex&quot;:21,&quot;word&quot;:3}"></path><path d="M357.42676,349.6837v5.27178h-0.96174v-5.27178h-1.47824v-0.96174h3.8915v0.96174z" data-paper-data="{&quot;glyphName&quot;:&quot;T&quot;,&quot;glyphIndex&quot;:22,&quot;word&quot;:3}"></path><path d="M361.0897,354.95547v-6.23352h3.84697v0.96174h-2.88523v1.55838h2.62698v0.96174h-2.62698v1.78991h2.91195v0.96174z" data-paper-data="{&quot;glyphName&quot;:&quot;E&quot;,&quot;glyphIndex&quot;:23,&quot;word&quot;:3}"></path><path d="M371.80542,354.95547v-4.2388l-1.83444,2.99209l-1.86115,-2.93866v4.18537h-0.93503v-6.23352h0.73912l2.05706,3.27705l2.05706,-3.27705h0.73021v6.23352z" data-paper-data="{&quot;glyphName&quot;:&quot;M&quot;,&quot;glyphIndex&quot;:24,&quot;lastGlyphOfWord&quot;:true,&quot;word&quot;:3}"></path></g><g data-paper-data="{&quot;isPrimaryText&quot;:true}" fill="#00587c" fill-rule="nonzero"><path d="M224.97312,328.79599h-20.62371v-13.28306v-9.61274c-1.74777,0.69911 -3.58293,1.57299 -5.50548,2.44688c-2.09733,1.04866 -4.01987,1.83516 -5.85504,2.44688v13.63262c0,2.53427 -1.74777,4.80637 -4.28204,5.41809l-3.32077,0.87389v1.83516h7.60281h11.36052h32.159h3.75771l1.92255,-15.11822h-1.92255c-1.83516,9.43797 -5.68026,11.36052 -15.293,11.36052zM236.50841,302.31725v-1.92255c-3.40815,-10.22446 -15.99211,-8.12714 -32.159,-1.48561v-2.00994v-0.26217v-5.68026v-11.36052v-9.52536h20.62371c9.61274,0 13.45784,1.92255 15.293,11.36052h1.92255l-1.92255,-15.11822h-3.75771h-32.159h-11.36052h-7.60281v1.92255l3.32077,0.7865c2.53427,0.61172 4.28204,2.88382 4.28204,5.50548v20.18676v1.92255v3.75771v0.87389v2.00994c-8.30192,2.18471 -11.27313,-0.43694 -13.28306,-2.88382c-1.92255,-3.75771 -1.39822,-9.52536 3.0586,-13.0209c0,0 -6.81631,-0.26217 -10.66141,5.41809c-1.83516,3.8451 -1.83516,9.35058 0.52433,12.2344c3.49554,4.45682 9.70013,9.26319 25.43008,1.66038c25.16791,-11.97224 35.2176,-11.53529 38.45098,-4.36943z" data-paper-data="{&quot;glyphName&quot;:&quot;&quot;,&quot;glyphIndex&quot;:0,&quot;firstGlyphOfWord&quot;:true,&quot;word&quot;:1}"></path><path d="M322.324,268.14832v-1.92255h-7.60281h-5.68026h-2.00994h-3.67032h-0.43694l-17.30294,41.24741l-19.05071,-41.24741h-8.65147h-3.75771h-0.17478h-7.42803v1.92255l3.14599,0.7865c2.62166,0.69911 4.45682,2.97121 4.45682,5.68026v49.54933c0,2.70905 -1.83516,5.06854 -4.45682,5.68026l-3.14599,0.7865v1.92255h7.60281h3.75771h7.60281v-1.92255l-3.14599,-0.7865c-2.62166,-0.61172 -4.45682,-2.97121 -4.45682,-5.68026v-49.46194l23.85708,51.64665l0.08739,-0.08739l0.08739,0.26217l21.4102,-51.38449v49.025c0,2.70905 -1.83516,5.06854 -4.45682,5.68026l-3.14599,0.7865v1.92255h7.60281h11.36052h7.60281v-1.92255l-3.14599,-0.7865c-2.62166,-0.61172 -4.45682,-2.97121 -4.45682,-5.68026v-49.54933c0,-2.70905 1.83516,-4.98115 4.45682,-5.68026z" data-paper-data="{&quot;glyphName&quot;:&quot;M&quot;,&quot;glyphIndex&quot;:1,&quot;word&quot;:1}"></path><path d="M358.41548,292.7919c-13.28306,-7.60281 -17.04077,-11.36052 -17.04077,-15.20561c0,-3.75771 1.92255,-9.43797 15.11822,-9.43797c11.36052,0 15.20561,5.68026 18.96332,13.28306h1.92255l-1.92255,-15.20561h-1.92255c-0.69911,1.74777 -2.2721,2.97121 -3.75771,1.92255c-3.32077,-2.2721 -6.9037,-3.75771 -13.28306,-3.75771c-13.19568,0 -22.72103,7.42803 -22.72103,17.04077c0,9.43797 3.8451,13.19568 17.04077,20.79848c18.43899,10.48663 20.88587,11.36052 20.88587,17.04077c0,5.68026 -7.60281,9.43797 -17.04077,9.43797c-17.04077,0 -18.96332,-11.36052 -20.88587,-15.11822h-1.83516l1.83516,18.96332h1.92255c0.61172,-1.74777 2.18471,-4.71898 3.75771,-3.8451c4.45682,2.53427 7.86497,3.8451 15.20561,3.8451c17.04077,0 24.55619,-7.60281 24.55619,-18.96332c0,-6.20459 -3.75771,-13.28306 -20.79848,-20.79848z" data-paper-data="{&quot;glyphName&quot;:&quot;S&quot;,&quot;glyphIndex&quot;:2,&quot;lastGlyphOfWord&quot;:true,&quot;word&quot;:1}"></path></g><g data-paper-data="{&quot;fillRule&quot;:&quot;evenodd&quot;,&quot;fillRuleOriginal&quot;:&quot;evenodd&quot;,&quot;isIcon&quot;:true,&quot;iconStyle&quot;:&quot;standalone&quot;,&quot;selectedEffects&quot;:{&quot;container&quot;:&quot;&quot;,&quot;transformation&quot;:&quot;&quot;,&quot;pattern&quot;:&quot;&quot;},&quot;bounds&quot;:{&quot;x&quot;:213.36901074214146,&quot;y&quot;:114.99999999999999,&quot;width&quot;:123.26197851571712,&quot;height&quot;:121.01397890753834},&quot;iconType&quot;:&quot;icon&quot;,&quot;rawIconId&quot;:&quot;21595&quot;,&quot;isDetailed&quot;:false,&quot;suitableAsStandaloneIcon&quot;:true}" fill-rule="evenodd"><g data-paper-data="{&quot;isPathIcon&quot;:true}"><path d="M268.259,115h16.485v6.588h-16.485z" fill="#00587c"></path><path d="M246.66,123.264h41.35299v8.491h-41.35299z" fill="#00587c"></path><path d="M304.62499,152.92099v40.33399h-10.745v-59.51699h-53.36799v76.83999h-27.143v25.436h123.26198v-83.09299zM246.97,140.197h40.45199v6.085h-40.45199zM246.97,150.27999h40.45199v6.205h-40.45199zM246.97,166.61999v-6.137h40.45199v6.137zM246.97,170.61799h40.45199v6.074h-40.45199zM246.97,186.64199v-5.951h40.45199v5.951zM264.263,193.25499v3.591h-17.293v-6.205h40.45199v2.614zM276.502,208.20998h-6.148v-8.25h6.148zM286.9,208.20998h-6.148v-8.25h6.148zM297.299,208.20998h-6.148v-8.25h6.148zM307.69799,208.20998h-6.147v-8.25h6.147zM318.09699,208.20998h-6.147v-8.25h6.147zM264.262,206.97998h-17.292v-6.136h17.292zM264.262,217.05298h-17.292v-6.075h17.292zM264.262,227.00298h-17.292v-5.952h17.292z" fill="#26d07c"></path></g></g></g></g><g class="watermark-group" style="opacity:0.040000010281801224"><path class="watermark-path" d="M129.52,370.3a11.88,11.88,0,0,1,2.58,5.58,12,12,0,0,1,.11,3,11.81,11.81,0,0,1-.64,2.93,12.34,12.34,0,0,1-1.41,2.72,11.65,11.65,0,0,1-2.13,2.32,12,12,0,0,1-2.64,1.69,13,13,0,0,1-2.91.9,12.47,12.47,0,0,1-3,.12,12.17,12.17,0,0,1-2.93-.64,11.8,11.8,0,0,1-2.72-1.38,12.19,12.19,0,0,1-4-4.79,11.85,11.85,0,0,1-.89-2.92,12.14,12.14,0,0,1-.13-3,11.54,11.54,0,0,1,.64-2.92,11.67,11.67,0,0,1,3.5-5,11.44,11.44,0,0,1,2.67-1.69,11.64,11.64,0,0,1,2.92-.91,10.71,10.71,0,0,1,3-.12,11.68,11.68,0,0,1,5.66,2,11.7,11.7,0,0,1,2.34,2.12m-1.4,8.76a13,13,0,0,1-1.22,2.32,9.68,9.68,0,0,1-1.81,2,7.44,7.44,0,0,1-2.38,1.37,6.17,6.17,0,0,1-5.11-.46,8.73,8.73,0,0,1-3.85-4.58,6.69,6.69,0,0,1-.34-2.66,6.09,6.09,0,0,1,.77-2.47,7.15,7.15,0,0,1,1.75-2.11,9.58,9.58,0,0,1,1.09-.81,8.23,8.23,0,0,1,1.12-.63,8.14,8.14,0,0,1,1.19-.46,12.71,12.71,0,0,1,1.32-.37l2,2.38a12.83,12.83,0,0,0-1.56.17,7.86,7.86,0,0,0-1.23.32,4.5,4.5,0,0,0-1,.49,6.41,6.41,0,0,0-.93.67,4.49,4.49,0,0,0-1.15,1.39,3.87,3.87,0,0,0-.45,1.58,4.12,4.12,0,0,0,.26,1.63,6.11,6.11,0,0,0,2.36,2.82,4.43,4.43,0,0,0,1.57.53,3.91,3.91,0,0,0,1.62-.17,4.71,4.71,0,0,0,1.57-.89,10.5,10.5,0,0,0,.83-.79,5.71,5.71,0,0,0,.65-.93,10.13,10.13,0,0,0,.54-1.14,12.24,12.24,0,0,0,.44-1.49l2,2.33m-14.46,4.55a8.86,8.86,0,0,0,2.78,2.22,9,9,0,0,0,3.29.94,9.15,9.15,0,0,0,3.39-.37,8.68,8.68,0,0,0,3.11-1.69,8.8,8.8,0,0,0,2.22-2.78,9.15,9.15,0,0,0,1-3.29,8.95,8.95,0,0,0-4.83-8.76,9,9,0,0,0-6.73-.57,9,9,0,0,0-5.33,4.47,8.94,8.94,0,0,0-.57,6.71,8.76,8.76,0,0,0,1.7,3.12"></path><path class="watermark-path" d="M147,349c-.48.12-1.09.31-1.82.57a24.37,24.37,0,0,0-2.4,1A28.35,28.35,0,0,0,140,352a20.72,20.72,0,0,0-2.71,1.94c-.7.59-1.28,1.11-1.74,1.57a15.07,15.07,0,0,0-1.1,1.22,4.09,4.09,0,0,0-.59.92,2.32,2.32,0,0,0-.22.64,1.16,1.16,0,0,0,0,.47,1.83,1.83,0,0,0,.18.29,1.15,1.15,0,0,0,1,.37,5.54,5.54,0,0,0,1.51-.38q.87-.35,1.95-.9l2.26-1.18q1.2-.65,2.49-1.29c.87-.44,1.73-.83,2.59-1.17a18.94,18.94,0,0,1,2.6-.81,9.27,9.27,0,0,1,2.46-.29,6.25,6.25,0,0,1,2.24.49,5.12,5.12,0,0,1,1.89,1.47,6.35,6.35,0,0,1,1.41,2.61,6,6,0,0,1,.09,2.6,8.3,8.3,0,0,1-.9,2.52,17.79,17.79,0,0,1-1.62,2.37,23.92,23.92,0,0,1-2,2.15c-.72.67-1.41,1.29-2.09,1.87a33.79,33.79,0,0,1-5.33,3.7,32.29,32.29,0,0,1-4.91,2.28l-3.61-4.3a21.38,21.38,0,0,0,5.39-1.87,27.2,27.2,0,0,0,5.4-3.56,21.59,21.59,0,0,0,2.38-2.27,8.67,8.67,0,0,0,1.18-1.7,2.32,2.32,0,0,0,.27-1.19,1.34,1.34,0,0,0-.28-.74,1.21,1.21,0,0,0-1-.42,4.32,4.32,0,0,0-1.55.34,15.77,15.77,0,0,0-2,.88c-.72.37-1.48.77-2.27,1.21l-2.45,1.3c-.85.45-1.7.85-2.56,1.21a22.37,22.37,0,0,1-2.54.86,10,10,0,0,1-2.43.32,5.76,5.76,0,0,1-2.2-.45,5,5,0,0,1-1.89-1.45,6.12,6.12,0,0,1-1.31-2.41,6,6,0,0,1-.1-2.41,8.28,8.28,0,0,1,.81-2.38,14.06,14.06,0,0,1,1.49-2.24,22.37,22.37,0,0,1,1.85-2.05q1-1,2-1.77c.7-.59,1.44-1.15,2.23-1.7s1.62-1.06,2.44-1.53,1.63-.91,2.43-1.3,1.58-.75,2.3-1L147,349"></path><path class="watermark-path" d="M186.76,337.57l-10.6-12.63,3.92,18.24-4.66,3.91-17.27-7,10.6,12.63-4.86,4.07-15.09-18,6.59-5.54,18.69,7.52-4.15-19.71,6.57-5.52,15.09,18-4.83,4.05"></path><path class="watermark-path" d="M208.84,313.24l-10,8.42,1.16,4.82L194.56,331l-5.68-25.89,5.42-4.55,24.51,10.09-5.42,4.55-4.55-2m-11.23,3.45,6.57-5.52-8.83-3.87,2.26,9.39"></path><path class="watermark-path" d="M227.49,281.38c-.48.12-1.09.31-1.82.57a24.37,24.37,0,0,0-2.4,1,26.11,26.11,0,0,0-2.7,1.47,20.72,20.72,0,0,0-2.71,1.94c-.7.59-1.28,1.11-1.74,1.57a13.39,13.39,0,0,0-1.1,1.22,4.29,4.29,0,0,0-.59.91,2.48,2.48,0,0,0-.22.65,1.16,1.16,0,0,0,0,.47,1.83,1.83,0,0,0,.18.29,1.15,1.15,0,0,0,1,.37,5.54,5.54,0,0,0,1.51-.38q.87-.34,2-.9l2.26-1.18q1.2-.64,2.49-1.29c.87-.44,1.73-.83,2.59-1.17a18.94,18.94,0,0,1,2.6-.81,9.27,9.27,0,0,1,2.46-.29,6.08,6.08,0,0,1,2.24.49,5.09,5.09,0,0,1,1.89,1.46,6.47,6.47,0,0,1,1.41,2.61,6.07,6.07,0,0,1,.09,2.61,8.3,8.3,0,0,1-.9,2.52,16.32,16.32,0,0,1-1.63,2.36,21.41,21.41,0,0,1-2,2.16c-.72.67-1.41,1.29-2.1,1.86a33.36,33.36,0,0,1-5.32,3.71,31.92,31.92,0,0,1-4.92,2.28l-3.6-4.3a21.38,21.38,0,0,0,5.39-1.87,27.2,27.2,0,0,0,5.4-3.56,21.59,21.59,0,0,0,2.38-2.27,8.67,8.67,0,0,0,1.18-1.7A2.32,2.32,0,0,0,231,293a1.34,1.34,0,0,0-.28-.74,1.21,1.21,0,0,0-1-.42,4.32,4.32,0,0,0-1.55.34,16.54,16.54,0,0,0-2,.88c-.71.37-1.47.77-2.26,1.21l-2.46,1.3c-.84.44-1.7.85-2.55,1.21a24.53,24.53,0,0,1-2.54.86A10,10,0,0,1,214,298a5.76,5.76,0,0,1-2.2-.45,5,5,0,0,1-1.89-1.45,6.12,6.12,0,0,1-1.31-2.41,5.78,5.78,0,0,1-.1-2.41,8,8,0,0,1,.81-2.38,14.61,14.61,0,0,1,1.49-2.25,22.26,22.26,0,0,1,1.85-2q1-1,2-1.77c.7-.59,1.44-1.15,2.23-1.7s1.62-1.06,2.44-1.53,1.63-.91,2.43-1.31,1.58-.74,2.3-1l3.5,4.16"></path><path class="watermark-path" d="M261.64,274.74l-6.29-7.5L243,277.61l6.3,7.5-4.86,4.07-15.09-18,4.85-4.08,5.49,6.55L252,263.3l-5.49-6.55,4.86-4.07,15.09,18-4.86,4.08"></path><path class="watermark-path" d="M272.18,265.9l-15.09-18,4.86-4.08,15.09,18-4.86,4.08"></path><path class="watermark-path" d="M299.65,242.85l-22.51-2.18L287.51,253l-4.85,4.08-15.1-18,5.28-4.43,22.56,2.22L285,224.5l4.83-4.06,15.09,18-5.26,4.42"></path><path class="watermark-path" d="M306.68,205.52a31.88,31.88,0,0,1,5.29-3.66,34.48,34.48,0,0,1,5.14-2.35l3.69,4.39a20.77,20.77,0,0,0-2.37.61,20.47,20.47,0,0,0-2.61,1,25.12,25.12,0,0,0-2.76,1.49,23.9,23.9,0,0,0-2.8,2,20.42,20.42,0,0,0-2.8,2.77,12.77,12.77,0,0,0-1.64,2.52,7,7,0,0,0-.68,2.24,6,6,0,0,0,.66,3.64,8.16,8.16,0,0,0,.94,1.38,9.12,9.12,0,0,0,1.08,1.07,6.39,6.39,0,0,0,1.47.91,6.73,6.73,0,0,0,1.88.48,6.54,6.54,0,0,0,2.28-.18,11.67,11.67,0,0,0,2.74-1.07,19.38,19.38,0,0,0,3.18-2.22c.57-.48,1.06-.92,1.46-1.31a14.57,14.57,0,0,0,1-1.13,11.46,11.46,0,0,0,.81-1.05l.74-1.09-1.82-2.17-5.45,4.57-3.31-3.94,10.31-8.65,7.71,9.19a29,29,0,0,1-1.67,2.43q-1,1.26-2.1,2.52c-.74.84-1.5,1.65-2.3,2.44s-1.58,1.5-2.33,2.14a31,31,0,0,1-3.59,2.61,22.55,22.55,0,0,1-3.64,1.83,15.64,15.64,0,0,1-3.63.89,10.72,10.72,0,0,1-3.49-.15,10.45,10.45,0,0,1-3.28-1.33,12.54,12.54,0,0,1-3-2.67,12,12,0,0,1-2.08-3.44,10.45,10.45,0,0,1-.71-3.5,11.14,11.14,0,0,1,.51-3.51,15.72,15.72,0,0,1,1.56-3.43,21.62,21.62,0,0,1,2.42-3.28,30.3,30.3,0,0,1,3.15-3"></path><path class="watermark-path" d="M336.91,211.59l-15.1-18,4.86-4.08,11.79,14,13.13-11,3.31,3.94-18,15.1"></path><path class="watermark-path" d="M374.54,164.71a12.28,12.28,0,0,1,2.59,4.81,10.44,10.44,0,0,1,0,5,14.62,14.62,0,0,1-2.33,5,25.55,25.55,0,0,1-4.56,4.85,26.07,26.07,0,0,1-5.6,3.67,14.79,14.79,0,0,1-5.38,1.43,10.43,10.43,0,0,1-4.94-.89,13.24,13.24,0,0,1-6.87-8.18,10.48,10.48,0,0,1,0-5,14.51,14.51,0,0,1,2.36-5,25.23,25.23,0,0,1,4.57-4.89,25,25,0,0,1,5.59-3.64,14.45,14.45,0,0,1,5.35-1.43,10.31,10.31,0,0,1,4.93.92,12.22,12.22,0,0,1,4.28,3.38m-4.91,4.11a8.36,8.36,0,0,0-2-1.72,5.5,5.5,0,0,0-2.65-.85,7.72,7.72,0,0,0-3.32.57,14.49,14.49,0,0,0-4,2.52,16.72,16.72,0,0,0-2.38,2.4,10.15,10.15,0,0,0-1.39,2.24,6.71,6.71,0,0,0-.56,2.1,5.69,5.69,0,0,0,.1,1.9,6.21,6.21,0,0,0,.61,1.69,9.85,9.85,0,0,0,1,1.44,10.48,10.48,0,0,0,1.26,1.23,6.67,6.67,0,0,0,1.57.92,6.1,6.1,0,0,0,1.85.41,6.8,6.8,0,0,0,2.15-.2,11.06,11.06,0,0,0,2.45-1,17.67,17.67,0,0,0,2.77-1.94,14.39,14.39,0,0,0,3.18-3.52,7.74,7.74,0,0,0,1.14-3.17,5.54,5.54,0,0,0-.37-2.74,8.52,8.52,0,0,0-1.36-2.3"></path><path class="watermark-path" d="M382.66,141.76A32.3,32.3,0,0,1,388,138.1a34.12,34.12,0,0,1,5.15-2.35l3.69,4.4a19.62,19.62,0,0,0-2.37.6,22.08,22.08,0,0,0-2.61,1,26,26,0,0,0-2.77,1.49,23.9,23.9,0,0,0-2.8,2,21,21,0,0,0-2.8,2.78,13.19,13.19,0,0,0-1.64,2.51,7.29,7.29,0,0,0-.68,2.24,6.36,6.36,0,0,0,.06,2,5.8,5.8,0,0,0,.61,1.68,8.12,8.12,0,0,0,.93,1.38,9.16,9.16,0,0,0,1.08,1.08,6.56,6.56,0,0,0,1.48.9,6,6,0,0,0,1.87.48,6.76,6.76,0,0,0,2.28-.17,12,12,0,0,0,2.74-1.08,18.57,18.57,0,0,0,3.18-2.22c.58-.48,1.06-.92,1.46-1.31s.75-.77,1.05-1.12.57-.72.81-1.06l.73-1.09-1.82-2.17-5.45,4.57-3.3-3.94,10.3-8.65,7.71,9.19a29,29,0,0,1-1.67,2.43q-1,1.26-2.1,2.52c-.73.84-1.5,1.66-2.3,2.44s-1.57,1.5-2.33,2.14a31,31,0,0,1-3.59,2.61,22.15,22.15,0,0,1-3.64,1.83,15.56,15.56,0,0,1-3.62.89,11,11,0,0,1-3.49-.14,10.84,10.84,0,0,1-3.28-1.33,12.82,12.82,0,0,1-3-2.68,12.12,12.12,0,0,1-2.08-3.43A10.71,10.71,0,0,1,375,155a11.18,11.18,0,0,1,.51-3.51,15.51,15.51,0,0,1,1.57-3.43,21.44,21.44,0,0,1,2.42-3.28,30.19,30.19,0,0,1,3.14-3"></path><path class="watermark-path" d="M428.63,119.31a12.26,12.26,0,0,1,2.59,4.82,10.44,10.44,0,0,1,0,5,14.53,14.53,0,0,1-2.34,5,25.29,25.29,0,0,1-4.56,4.86,26,26,0,0,1-5.59,3.67,14.84,14.84,0,0,1-5.38,1.43,10.61,10.61,0,0,1-4.95-.89,12.15,12.15,0,0,1-4.3-3.37,12,12,0,0,1-2.56-4.81,10.48,10.48,0,0,1,0-5,14.39,14.39,0,0,1,2.35-5,27.89,27.89,0,0,1,10.16-8.53,14.49,14.49,0,0,1,5.36-1.43,10.27,10.27,0,0,1,4.92.92,12.21,12.21,0,0,1,4.28,3.37m-4.91,4.12a8.17,8.17,0,0,0-2-1.72,5.58,5.58,0,0,0-2.65-.86,7.86,7.86,0,0,0-3.31.58,14.49,14.49,0,0,0-4,2.52,16.21,16.21,0,0,0-2.38,2.4,9.85,9.85,0,0,0-1.4,2.24,7,7,0,0,0-.56,2.1,6,6,0,0,0,.1,1.9,6.23,6.23,0,0,0,.62,1.69,8.49,8.49,0,0,0,1,1.44,9.18,9.18,0,0,0,1.26,1.23,6.67,6.67,0,0,0,1.57.92,6,6,0,0,0,1.84.41,6.86,6.86,0,0,0,2.16-.2,11.26,11.26,0,0,0,2.45-1,17.62,17.62,0,0,0,2.76-1.94,14.67,14.67,0,0,0,3.19-3.52,7.71,7.71,0,0,0,1.13-3.17,5.53,5.53,0,0,0-.36-2.74,8.55,8.55,0,0,0-1.37-2.3"></path></g></svg>